<svg xmlns="http://www.w3.org/2000/svg" width="400" height="340"><path fill="#f1f1f1" d="M301.6846504324834,278.92214703827665C280.9511025589688,297.57567950363716,278.8715970355934,324.50581515028205,261.1126970326641,331.92119479216325C243.35379702973472,339.33657443404445,216.62410376254942,327.09508181596146,195.1312504149072,323.414424889564C173.638397067265,319.7337679631665,152.18746457578453,320.4634546714331,132.15557694681084,309.83725323377837C112.12368931783715,299.2110517961236,85.35457148657959,281.49763885369185,74.939924641065,259.65721626363563C64.52527779555042,237.81679367357944,63.397133071484745,204.1455778172371,69.66769587372335,178.79471769344116C75.93825867596195,153.44385756964522,92.84882337950862,126.23940397798519,112.56330145449661,107.55205552085992C132.2777795294846,88.86470706373466,161.15489953822137,71.05294830130924,187.95456432365128,66.67062695068955C214.7542291090812,62.28830560006986,246.11882520802413,70.84961085433773,273.3612901670761,81.25812741714176C300.6037551261281,91.6666439799458,332.71723839351705,105.99808089703741,351.40935407796303,129.12172632751378C370.101469762409,152.24537175799014,393.8014348813318,195.03326321487285,385.5139842737518,220C377.22653366617186,244.96673678512715,322.41819830599803,260.26861457291614,301.6846504324834,278.92214703827665" stroke="none" stroke-width="3"/></svg>